<?xml version="1.0" standalone="no"?><!DOCTYPE svg PUBLIC "-//W3C//DTD SVG 1.1//EN" "http://www.w3.org/Graphics/SVG/1.1/DTD/svg11.dtd"><svg t="1642407574609" class="icon" viewBox="0 0 1024 1024" version="1.1" xmlns="http://www.w3.org/2000/svg" p-id="2757" xmlns:xlink="http://www.w3.org/1999/xlink" width="200" height="200"><defs><style type="text/css">@font-face { font-family: element-icons; src: url("chrome-extension://moombeodfomdpjnpocobemoiaemednkg/fonts/element-icons.woff") format("woff"), url("chrome-extension://moombeodfomdpjnpocobemoiaemednkg/fonts/element-icons.ttf ") format("truetype"); }
</style></defs><path d="M512 508.8m-469.5 0a469.5 469.5 0 1 0 939 0 469.5 469.5 0 1 0-939 0Z" fill="#242424" p-id="2758"></path><path d="M510.2 194.9c-22.6 0-41 18.3-41 41v332.6c0 22.6 18.3 41 41 41 22.6 0 41-18.3 41-41V235.8c0-22.6-18.3-40.9-41-40.9z" fill="#FFFFFF" p-id="2759"></path><path d="M659.7 419c-16-16-41.9-16-57.9 0L481.3 539.5c-16 16-16 41.9 0 57.9s41.9 16 57.9 0l120.5-120.5c16-16 16-41.9 0-57.9z" fill="#FFFFFF" p-id="2760"></path><path d="M360.2 418.4c-16 16-16 41.9 0 57.9l121.1 121.1c16 16 41.9 16 57.9 0s16-41.9 0-57.9L418.1 418.4c-16-16-41.9-16-57.9 0z" fill="#FFFFFF" p-id="2761"></path><path d="M794.2 580.7c-22.6 0-41 18.3-41 41v35.2c-2.2 10.6-10.7 18.8-21.5 20.5H287.1c-10.6-2.3-18.8-10.9-20.4-21.7v-33.9c0-22.6-18.3-41-41-41s-41 18.3-41 41v74.6c2.3 33 27.9 59.5 60.5 63h528.4c32.3-2.9 58.1-28.5 61.5-60.7v-76.9c0.1-22.8-18.3-41.1-40.9-41.1z" fill="#FFFFFF" p-id="2762"></path></svg>